<svg xmlns="http://www.w3.org/2000/svg" fill="none" viewBox="0 0 113 32" height="32" width="113">
<path fill="#E84C14" d="M7.72997 12.031L8.25797 10.5625H12.284C12.548 10.5625 12.7515 10.6065 12.8945 10.6945C13.0375 10.7715 13.109 10.909 13.109 11.107C13.109 11.272 13.043 11.426 12.911 11.569C12.79 11.712 12.6195 11.8275 12.3995 11.9155C12.1795 11.9925 11.921 12.031 11.624 12.031H7.72997ZM3.43997 11.14C3.43997 10.964 3.50597 10.821 3.63797 10.711C3.78097 10.601 3.99547 10.546 4.28147 10.546H6.31097L7.15247 7.1635C7.59247 5.3045 8.31297 3.8855 9.31397 2.9065C10.326 1.9275 11.668 1.438 13.34 1.438C14.264 1.438 14.946 1.6195 15.386 1.9825C15.837 2.3345 16.0625 2.7525 16.0625 3.2365C16.0625 3.7315 15.914 4.1385 15.617 4.4575C15.32 4.7655 14.924 4.9195 14.429 4.9195C14.11 4.9195 13.8075 4.848 13.5215 4.705C13.2465 4.562 12.9825 4.397 12.7295 4.21C12.4765 4.023 12.218 3.858 11.954 3.715C11.701 3.572 11.4315 3.5005 11.1455 3.5005C10.6175 3.5005 10.172 3.6875 9.80897 4.0615C9.45697 4.4245 9.21497 4.903 9.08297 5.497C9.00597 5.849 9.00047 6.2395 9.06647 6.6685C9.13247 7.0975 9.22047 7.5375 9.33047 7.9885C9.44047 8.4395 9.51747 8.8905 9.56147 9.3415C9.61647 9.7925 9.58897 10.227 9.47897 10.645L5.27147 26.122C5.18347 26.452 5.11747 26.7435 5.07347 26.9965C5.02947 27.2605 5.00747 27.497 5.00747 27.706C5.00747 27.981 5.07347 28.201 5.20547 28.366C5.33747 28.542 5.46397 28.707 5.58497 28.861C5.71697 29.015 5.78297 29.202 5.78297 29.422C5.78297 29.73 5.62897 30.016 5.32097 30.28C5.01297 30.544 4.61147 30.753 4.11647 30.907C3.62147 31.072 3.09897 31.1545 2.54897 31.1545C1.91097 31.1545 1.49847 30.918 1.31147 30.445C1.12447 29.983 1.16297 29.268 1.42697 28.3L5.55197 13.7305C5.72797 13.1145 5.72797 12.669 5.55197 12.394C5.38697 12.108 4.93597 11.9265 4.19897 11.8495C3.89097 11.7395 3.68747 11.6295 3.58847 11.5195C3.48947 11.3985 3.43997 11.272 3.43997 11.14ZM19.6272 9.292C21.2222 9.292 22.6247 9.633 23.8347 10.315C25.0557 10.997 26.0072 11.9485 26.6892 13.1695C27.3822 14.3795 27.7287 15.7765 27.7287 17.3605C27.7287 18.9005 27.3767 20.2755 26.6727 21.4855C25.9797 22.6955 25.0172 23.647 23.7852 24.34C22.5532 25.033 21.1287 25.3795 19.5117 25.3795C17.9167 25.3795 16.5087 25.0385 15.2877 24.3565C14.0777 23.6635 13.1262 22.712 12.4332 21.502C11.7512 20.292 11.4102 18.9005 11.4102 17.3275C11.4102 15.7655 11.7567 14.385 12.4497 13.186C13.1537 11.976 14.1217 11.0245 15.3537 10.3315C16.5857 9.6385 18.0102 9.292 19.6272 9.292ZM20.7492 24.0925C21.6512 23.9605 22.3882 23.5865 22.9602 22.9705C23.5322 22.3545 23.9172 21.5185 24.1152 20.4625C24.3132 19.4065 24.2967 18.158 24.0657 16.717C23.8347 15.265 23.4497 14.0605 22.9107 13.1035C22.3827 12.1465 21.7282 11.4535 20.9472 11.0245C20.1772 10.5955 19.3302 10.447 18.4062 10.579C17.4932 10.711 16.7507 11.085 16.1787 11.701C15.6067 12.317 15.2217 13.153 15.0237 14.209C14.8367 15.265 14.8532 16.5135 15.0732 17.9545C15.3042 19.3955 15.6892 20.5945 16.2282 21.5515C16.7672 22.5085 17.4217 23.2015 18.1917 23.6305C18.9617 24.0595 19.8142 24.2135 20.7492 24.0925ZM33.6272 16.4695C33.6272 14.9185 33.8527 13.6095 34.3037 12.5425C34.7657 11.4645 35.3597 10.656 36.0857 10.117C36.8227 9.567 37.5982 9.292 38.4122 9.292C39.3912 9.292 40.1447 9.5615 40.6727 10.1005C41.2117 10.6395 41.4812 11.382 41.4812 12.328C41.4812 13.076 41.3217 13.6425 41.0027 14.0275C40.6837 14.4125 40.2712 14.605 39.7652 14.605C39.2592 14.605 38.8687 14.462 38.5937 14.176C38.3187 13.89 38.1812 13.4885 38.1812 12.9715L38.1647 12.427C38.1647 12.053 38.0767 11.778 37.9007 11.602C37.7357 11.415 37.4552 11.3215 37.0592 11.3215C36.5862 11.3215 36.1242 11.514 35.6732 11.899C35.2332 12.273 34.8702 12.8395 34.5842 13.5985C34.3092 14.3575 34.1717 15.3145 34.1717 16.4695H33.6272ZM34.0067 10.1995L34.1717 14.2585V22.8715C34.1717 23.1245 34.2322 23.3225 34.3532 23.4655C34.4742 23.6085 34.6777 23.6965 34.9637 23.7295L36.4652 23.944C36.6742 23.977 36.8282 24.0375 36.9272 24.1255C37.0372 24.2135 37.0922 24.34 37.0922 24.505C37.0922 24.659 37.0317 24.78 36.9107 24.868C36.7897 24.956 36.6192 25 36.3992 25H29.4527C29.2217 25 29.0512 24.956 28.9412 24.868C28.8312 24.78 28.7762 24.659 28.7762 24.505C28.7762 24.373 28.8202 24.2685 28.9082 24.1915C28.9962 24.1035 29.1282 24.032 29.3042 23.977L30.1127 23.812C30.3217 23.757 30.4757 23.658 30.5747 23.515C30.6847 23.372 30.7397 23.163 30.7397 22.888V12.4435C30.7397 12.2125 30.7012 12.0475 30.6242 11.9485C30.5582 11.8495 30.4317 11.789 30.2447 11.767L29.1062 11.7175C28.9412 11.6955 28.8202 11.6515 28.7432 11.5855C28.6662 11.5085 28.6277 11.4095 28.6277 11.2885C28.6277 11.1565 28.6717 11.052 28.7597 10.975C28.8477 10.887 29.0017 10.8045 29.2217 10.7275L32.0597 9.7705C32.4447 9.6275 32.7307 9.534 32.9177 9.49C33.1157 9.446 33.2752 9.424 33.3962 9.424C33.5832 9.424 33.7207 9.4845 33.8087 9.6055C33.9077 9.7265 33.9737 9.9245 34.0067 10.1995ZM47.1204 10.1995V22.888C47.1204 23.163 47.1699 23.372 47.2689 23.515C47.3789 23.658 47.5384 23.757 47.7474 23.812L48.5064 23.977C48.8254 24.076 48.9849 24.2465 48.9849 24.4885C48.9849 24.8295 48.7539 25 48.2919 25H42.4014C42.1704 25 41.9999 24.956 41.8899 24.868C41.7799 24.78 41.7249 24.659 41.7249 24.505C41.7249 24.384 41.7689 24.2795 41.8569 24.1915C41.9449 24.1035 42.0769 24.032 42.2529 23.977L43.0614 23.812C43.2704 23.746 43.4244 23.647 43.5234 23.515C43.6334 23.372 43.6884 23.163 43.6884 22.888V12.427C43.6884 12.196 43.6499 12.031 43.5729 11.932C43.4959 11.833 43.3694 11.7725 43.1934 11.7505L42.0549 11.7175C41.8899 11.6845 41.7689 11.635 41.6919 11.569C41.6149 11.492 41.5764 11.393 41.5764 11.272C41.5764 11.151 41.6149 11.0465 41.6919 10.9585C41.7799 10.8705 41.9394 10.788 42.1704 10.711L45.0414 9.721C45.3604 9.611 45.6189 9.534 45.8169 9.49C46.0149 9.435 46.1909 9.4075 46.3449 9.4075C46.5979 9.4075 46.7904 9.479 46.9224 9.622C47.0544 9.765 47.1204 9.9575 47.1204 10.1995ZM46.6584 13.648L46.0809 13.054L46.7739 12.427C48.0719 11.261 49.1994 10.447 50.1564 9.985C51.1244 9.523 52.0484 9.292 52.9284 9.292C54.2924 9.292 55.3869 9.721 56.2119 10.579C57.0369 11.426 57.4494 12.5975 57.4494 14.0935V22.822C57.4494 23.119 57.5099 23.3445 57.6309 23.4985C57.7519 23.6525 57.9224 23.7625 58.1424 23.8285L58.8354 23.9935C59.1434 24.0925 59.2974 24.2575 59.2974 24.4885C59.2974 24.8295 59.0719 25 58.6209 25H52.7964C52.3344 25 52.1034 24.8295 52.1034 24.4885C52.1034 24.2465 52.2629 24.076 52.5819 23.977L53.3739 23.812C53.6049 23.746 53.7699 23.636 53.8689 23.482C53.9789 23.328 54.0339 23.1025 54.0339 22.8055V14.5885C54.0339 13.4995 53.7644 12.68 53.2254 12.13C52.6974 11.58 51.9879 11.305 51.0969 11.305C50.5469 11.305 49.9639 11.4425 49.3479 11.7175C48.7319 11.9925 48.0664 12.4325 47.3514 13.0375L46.6584 13.648ZM56.9874 13.648L56.3934 13.054L57.1029 12.427C58.3459 11.305 59.4184 10.502 60.3204 10.018C61.2224 9.534 62.1024 9.292 62.9604 9.292C64.2584 9.292 65.2649 9.721 65.9799 10.579C66.6949 11.437 67.1349 12.6085 67.2999 14.0935L68.3394 22.822C68.3724 23.119 68.4384 23.3445 68.5374 23.4985C68.6474 23.6525 68.8179 23.7625 69.0489 23.8285L69.7419 23.977C69.9179 24.032 70.0444 24.1035 70.1214 24.1915C70.2094 24.2685 70.2534 24.373 70.2534 24.505C70.2534 24.659 70.1984 24.78 70.0884 24.868C69.9894 24.956 69.8244 25 69.5934 25H63.6534C63.1914 25 62.9604 24.8295 62.9604 24.4885C62.9604 24.2465 63.1144 24.076 63.4224 23.977L64.2144 23.812C64.4564 23.757 64.6379 23.6525 64.7589 23.4985C64.8799 23.3335 64.9239 23.1025 64.8909 22.8055L63.9009 14.5885C63.7579 13.4995 63.4664 12.68 63.0264 12.13C62.5974 11.58 61.9704 11.305 61.1454 11.305C60.6394 11.305 60.1004 11.4535 59.5284 11.7505C58.9674 12.0365 58.3514 12.4655 57.6804 13.0375L56.9874 13.648ZM82.0852 23.2345V22.0465L82.0027 21.964V12.4435C82.0027 12.2125 81.9642 12.0475 81.8872 11.9485C81.8102 11.8385 81.6837 11.778 81.5077 11.767L80.3692 11.7175C80.1932 11.6955 80.0667 11.6515 79.9897 11.5855C79.9237 11.5085 79.8907 11.4095 79.8907 11.2885C79.8907 11.1565 79.9292 11.052 80.0062 10.975C80.0942 10.887 80.2537 10.8045 80.4847 10.7275L83.3557 9.7375C83.6637 9.6275 83.9167 9.5505 84.1147 9.5065C84.3127 9.4515 84.4942 9.424 84.6592 9.424C84.9122 9.424 85.0992 9.4955 85.2202 9.6385C85.3522 9.7705 85.4182 9.9575 85.4182 10.1995V22.8715C85.4182 23.1575 85.4732 23.372 85.5832 23.515C85.6932 23.658 85.8472 23.757 86.0452 23.812L86.8372 23.977C87.0132 24.021 87.1452 24.087 87.2332 24.175C87.3212 24.263 87.3652 24.373 87.3652 24.505C87.3652 24.659 87.3102 24.78 87.2002 24.868C87.0902 24.956 86.9142 25 86.6722 25H83.6692C83.1852 25 82.8002 24.846 82.5142 24.538C82.2282 24.219 82.0852 23.7845 82.0852 23.2345ZM71.8057 20.5615V12.4435C71.8057 12.2125 71.7672 12.0475 71.6902 11.9485C71.6132 11.8385 71.4867 11.778 71.3107 11.767L70.1722 11.7175C70.0072 11.6955 69.8862 11.6515 69.8092 11.5855C69.7322 11.5085 69.6937 11.4095 69.6937 11.2885C69.6937 11.1565 69.7377 11.052 69.8257 10.975C69.9137 10.887 70.0677 10.8045 70.2877 10.7275L73.1587 9.7375C73.4887 9.6165 73.7472 9.534 73.9342 9.49C74.1322 9.446 74.3027 9.424 74.4457 9.424C74.7097 9.424 74.9077 9.4955 75.0397 9.6385C75.1717 9.7705 75.2377 9.9575 75.2377 10.1995V20.0665C75.2377 21.1665 75.5017 21.9915 76.0297 22.5415C76.5687 23.0805 77.2782 23.35 78.1582 23.35C78.7082 23.35 79.2912 23.2125 79.9072 22.9375C80.5232 22.6515 81.1832 22.206 81.8872 21.601L82.5802 21.007L83.1742 21.601L82.4647 22.228C81.1777 23.383 80.0502 24.197 79.0822 24.67C78.1252 25.132 77.2067 25.363 76.3267 25.363C74.9737 25.363 73.8792 24.9395 73.0432 24.0925C72.2182 23.2345 71.8057 22.0575 71.8057 20.5615ZM93.6914 1.4545V22.8715C93.6914 23.1575 93.7409 23.372 93.8399 23.515C93.9499 23.658 94.1094 23.757 94.3184 23.812L95.0939 23.977C95.2809 24.021 95.4184 24.087 95.5064 24.175C95.5944 24.263 95.6384 24.373 95.6384 24.505C95.6384 24.659 95.5779 24.78 95.4569 24.868C95.3469 24.956 95.1764 25 94.9454 25H88.9724C88.7414 25 88.5709 24.956 88.4609 24.868C88.3509 24.78 88.2959 24.659 88.2959 24.505C88.2959 24.373 88.3399 24.2685 88.4279 24.1915C88.5159 24.1035 88.6479 24.032 88.8239 23.977L89.6324 23.812C89.8414 23.746 90.0009 23.647 90.1109 23.515C90.2209 23.372 90.2759 23.163 90.2759 22.888V3.682C90.2759 3.462 90.2374 3.3025 90.1604 3.2035C90.0834 3.0935 89.9514 3.0275 89.7644 3.0055L88.6424 2.9725C88.4664 2.9395 88.3399 2.89 88.2629 2.824C88.1859 2.747 88.1474 2.6535 88.1474 2.5435C88.1474 2.4115 88.1914 2.3015 88.2794 2.2135C88.3674 2.1255 88.5214 2.043 88.7414 1.966L91.6124 0.992499C91.9424 0.871499 92.2064 0.788999 92.4044 0.745C92.6024 0.69 92.7674 0.6625 92.8994 0.6625C93.1634 0.6625 93.3614 0.734 93.4934 0.877C93.6254 1.02 93.6914 1.2125 93.6914 1.4545ZM106.278 23.02V22.723L106.08 22.6405V13.1695C106.08 12.2125 105.843 11.481 105.37 10.975C104.908 10.458 104.243 10.1995 103.374 10.1995C102.538 10.1995 101.911 10.3755 101.493 10.7275C101.086 11.0795 100.882 11.4975 100.882 11.9815V13.252C100.882 13.78 100.706 14.187 100.354 14.473C100.013 14.759 99.5455 14.902 98.9515 14.902C98.4345 14.902 98.0385 14.7645 97.7635 14.4895C97.4885 14.2145 97.351 13.846 97.351 13.384C97.351 12.724 97.6095 12.0805 98.1265 11.4535C98.6435 10.8265 99.397 10.3095 100.387 9.9025C101.377 9.4955 102.582 9.292 104.001 9.292C105.849 9.292 107.224 9.6935 108.126 10.4965C109.028 11.2885 109.479 12.361 109.479 13.714V22.6075C109.479 22.9815 109.545 23.251 109.677 23.416C109.82 23.581 110.007 23.6635 110.238 23.6635C110.502 23.6635 110.694 23.603 110.815 23.482C110.947 23.35 111.052 23.218 111.129 23.086C111.184 23.02 111.233 22.965 111.277 22.921C111.332 22.877 111.404 22.855 111.492 22.855C111.591 22.855 111.662 22.8935 111.706 22.9705C111.761 23.0365 111.789 23.1355 111.789 23.2675C111.789 23.5755 111.684 23.889 111.475 24.208C111.266 24.527 110.958 24.7965 110.551 25.0165C110.144 25.2475 109.633 25.363 109.017 25.363C108.159 25.363 107.488 25.165 107.004 24.769C106.52 24.362 106.278 23.779 106.278 23.02ZM96.6085 21.601C96.6085 20.314 97.175 19.2635 98.308 18.4495C99.452 17.6245 101.053 17.212 103.11 17.212C103.858 17.212 104.534 17.2835 105.139 17.4265C105.755 17.5585 106.3 17.7345 106.773 17.9545L106.525 18.763C106.074 18.565 105.607 18.4055 105.123 18.2845C104.65 18.1635 104.133 18.103 103.572 18.103C102.483 18.103 101.636 18.367 101.031 18.895C100.426 19.423 100.123 20.138 100.123 21.04C100.123 21.931 100.376 22.6185 100.882 23.1025C101.388 23.5865 102.032 23.8285 102.813 23.8285C103.528 23.8285 104.215 23.669 104.875 23.35C105.546 23.02 106.118 22.5525 106.591 21.9475L106.905 22.6405C106.278 23.5095 105.458 24.1805 104.446 24.6535C103.445 25.1265 102.384 25.363 101.262 25.363C99.8865 25.363 98.7645 25.022 97.8955 24.34C97.0375 23.658 96.6085 22.745 96.6085 21.601Z"></path>
<path fill="#E84C14" d="M21.9352 1.11362C22.297 0.486282 23.1054 0.28158 23.7222 0.661126C24.3175 1.02746 24.5109 1.80239 24.1576 2.40551L21.8318 6.37534C21.4795 6.97675 20.7081 7.18166 20.1038 6.83441C19.4951 6.48467 19.2857 5.70732 19.6365 5.09919L21.9352 1.11362Z"></path>
</svg>
